<?xml version="1.0" encoding="UTF-8"?>
<svg xmlns="http://www.w3.org/2000/svg" xmlns:xlink="http://www.w3.org/1999/xlink" width="854" height="480" viewBox="0 0 854 480">
<defs>
<g>
<g id="glyph-0-0">
<path d="M 2.765625 0 L 0.203125 0 L 0.203125 -0.253906 C 0.265625 -0.257812 0.351562 -0.265625 0.464844 -0.273438 C 0.578125 -0.28125 0.65625 -0.296875 0.699219 -0.3125 C 0.78125 -0.34375 0.835938 -0.386719 0.863281 -0.441406 C 0.894531 -0.496094 0.90625 -0.5625 0.90625 -0.644531 L 0.90625 -3.917969 C 0.90625 -3.992188 0.894531 -4.058594 0.867188 -4.113281 C 0.835938 -4.171875 0.78125 -4.214844 0.699219 -4.25 C 0.648438 -4.273438 0.570312 -4.296875 0.46875 -4.316406 C 0.367188 -4.339844 0.277344 -4.355469 0.203125 -4.367188 L 0.203125 -4.617188 L 2.765625 -4.617188 L 2.765625 -4.367188 C 2.703125 -4.359375 2.621094 -4.347656 2.523438 -4.335938 C 2.425781 -4.324219 2.34375 -4.308594 2.273438 -4.289062 C 2.191406 -4.257812 2.132812 -4.214844 2.105469 -4.15625 C 2.078125 -4.09375 2.0625 -4.027344 2.0625 -3.953125 L 2.0625 -0.679688 C 2.0625 -0.601562 2.078125 -0.535156 2.109375 -0.480469 C 2.136719 -0.425781 2.191406 -0.378906 2.273438 -0.34375 C 2.320312 -0.324219 2.394531 -0.304688 2.5 -0.289062 C 2.605469 -0.269531 2.695312 -0.257812 2.765625 -0.253906 Z "/>
</g>
<g id="glyph-0-1">
<path d="M 2.644531 0.125 C 2.308594 0.125 1.992188 0.0703125 1.695312 -0.0390625 C 1.402344 -0.148438 1.144531 -0.304688 0.925781 -0.515625 C 0.710938 -0.71875 0.539062 -0.972656 0.417969 -1.273438 C 0.292969 -1.574219 0.230469 -1.90625 0.230469 -2.265625 C 0.230469 -2.625 0.292969 -2.957031 0.417969 -3.261719 C 0.542969 -3.566406 0.71875 -3.832031 0.945312 -4.054688 C 1.164062 -4.273438 1.429688 -4.445312 1.742188 -4.566406 C 2.050781 -4.6875 2.382812 -4.746094 2.738281 -4.746094 C 2.992188 -4.746094 3.226562 -4.714844 3.4375 -4.652344 C 3.648438 -4.589844 3.824219 -4.519531 3.972656 -4.441406 L 4.171875 -4.617188 L 4.457031 -4.617188 L 4.484375 -2.933594 L 4.199219 -2.933594 C 4.035156 -3.449219 3.839844 -3.828125 3.613281 -4.066406 C 3.386719 -4.308594 3.109375 -4.429688 2.78125 -4.429688 C 2.375 -4.429688 2.0625 -4.25 1.851562 -3.890625 C 1.640625 -3.53125 1.53125 -3.027344 1.53125 -2.375 C 1.53125 -2.007812 1.570312 -1.695312 1.640625 -1.4375 C 1.714844 -1.175781 1.808594 -0.964844 1.925781 -0.808594 C 2.050781 -0.644531 2.199219 -0.523438 2.371094 -0.445312 C 2.542969 -0.367188 2.734375 -0.328125 2.941406 -0.328125 C 3.246094 -0.328125 3.515625 -0.410156 3.753906 -0.578125 C 3.988281 -0.742188 4.207031 -0.992188 4.402344 -1.324219 L 4.679688 -1.15625 C 4.585938 -0.964844 4.480469 -0.792969 4.363281 -0.644531 C 4.242188 -0.492188 4.105469 -0.363281 3.949219 -0.253906 C 3.777344 -0.132812 3.585938 -0.0429688 3.378906 0.0273438 C 3.171875 0.09375 2.929688 0.125 2.644531 0.125 Z "/>
</g>
<g id="glyph-0-2">
</g>
</g>
</defs>
<g fill="rgb(20.392157%, 82.745098%, 60%)" fill-opacity="1">
<use xlink:href="#glyph-0-0" x="30" y="26.112305"/>
<use xlink:href="#glyph-0-1" x="33" y="26.112305"/>
<use xlink:href="#glyph-0-2" x="38" y="26.112305"/>
</g>
</svg>
