<?xml version="1.0" encoding="UTF-8"?>
<svg xmlns="http://www.w3.org/2000/svg" xmlns:xlink="http://www.w3.org/1999/xlink" width="854" height="480" viewBox="0 0 854 480">
<defs>
<g>
<g id="glyph-0-0">
<path d="M 2.125 -0.667969 C 2.078125 -0.429688 1.957031 -0.285156 1.765625 -0.238281 C 1.574219 -0.191406 1.417969 -0.222656 1.289062 -0.335938 C 1.160156 -0.445312 1.097656 -0.589844 1.097656 -0.765625 C 1.097656 -0.9375 1.160156 -1.074219 1.289062 -1.167969 C 1.417969 -1.265625 1.527344 -1.3125 1.625 -1.3125 C 1.703125 -1.3125 1.816406 -1.265625 1.96875 -1.167969 C 2.121094 -1.074219 2.171875 -0.90625 2.125 -0.667969 M 4.964844 -0.667969 C 4.917969 -0.429688 4.796875 -0.285156 4.605469 -0.238281 C 4.414062 -0.191406 4.257812 -0.222656 4.128906 -0.335938 C 4.003906 -0.445312 3.9375 -0.589844 3.9375 -0.765625 C 3.9375 -0.9375 4.003906 -1.074219 4.128906 -1.167969 C 4.257812 -1.265625 4.367188 -1.3125 4.464844 -1.3125 C 4.542969 -1.3125 4.660156 -1.265625 4.808594 -1.167969 C 4.960938 -1.074219 5.011719 -0.90625 4.964844 -0.667969 M 3.53125 -3.582031 C 3.484375 -3.339844 3.367188 -3.199219 3.175781 -3.152344 C 2.984375 -3.101562 2.824219 -3.136719 2.699219 -3.246094 C 2.570312 -3.359375 2.507812 -3.5 2.507812 -3.675781 C 2.507812 -3.851562 2.570312 -3.984375 2.699219 -4.082031 C 2.824219 -4.175781 2.9375 -4.226562 3.03125 -4.226562 C 3.109375 -4.226562 3.226562 -4.175781 3.378906 -4.082031 C 3.527344 -3.984375 3.582031 -3.820312 3.53125 -3.582031 Z "/>
</g>
<g id="glyph-0-1">
<path d="M 0.691406 -2.339844 L 5.417969 -2.339844 L 5.417969 -2.101562 L 0.691406 -2.101562 L 0.691406 -2.339844 M 0.691406 -3.316406 L 5.417969 -3.316406 L 5.417969 -3.078125 L 0.691406 -3.078125 L 0.691406 -3.316406 M 0.691406 -1.359375 L 5.417969 -1.359375 L 5.417969 -1.121094 L 0.691406 -1.121094 Z "/>
</g>
<g id="glyph-1-0">
<path d="M 0.890625 -1.726562 L 0.890625 -0.113281 L 1.28125 -0.113281 C 1.308594 -0.113281 1.328125 -0.109375 1.339844 -0.0976562 C 1.351562 -0.0898438 1.355469 -0.0742188 1.355469 -0.0585938 C 1.355469 -0.0390625 1.351562 -0.0273438 1.339844 -0.015625 C 1.328125 -0.00390625 1.308594 0 1.28125 0 L 0.386719 0 C 0.359375 0 0.339844 -0.00390625 0.328125 -0.015625 C 0.316406 -0.0273438 0.308594 -0.0390625 0.308594 -0.0585938 C 0.308594 -0.0742188 0.316406 -0.0898438 0.328125 -0.0976562 C 0.339844 -0.109375 0.359375 -0.113281 0.386719 -0.113281 L 0.777344 -0.113281 L 0.777344 -1.566406 L 0.402344 -1.449219 C 0.386719 -1.445312 0.371094 -1.441406 0.363281 -1.441406 C 0.351562 -1.441406 0.339844 -1.449219 0.328125 -1.460938 C 0.316406 -1.472656 0.3125 -1.484375 0.3125 -1.5 C 0.3125 -1.511719 0.316406 -1.527344 0.324219 -1.539062 C 0.332031 -1.546875 0.347656 -1.554688 0.367188 -1.5625 Z "/>
</g>
<g id="glyph-1-1">
<path d="M 0.386719 -0.113281 L 0.386719 -1.472656 L 0.289062 -1.472656 C 0.261719 -1.472656 0.242188 -1.476562 0.230469 -1.488281 C 0.21875 -1.5 0.214844 -1.511719 0.214844 -1.53125 C 0.214844 -1.546875 0.21875 -1.5625 0.230469 -1.570312 C 0.242188 -1.582031 0.261719 -1.585938 0.289062 -1.585938 L 0.902344 -1.585938 C 1 -1.585938 1.085938 -1.566406 1.164062 -1.527344 C 1.246094 -1.488281 1.304688 -1.441406 1.347656 -1.390625 C 1.417969 -1.304688 1.472656 -1.214844 1.507812 -1.117188 C 1.535156 -1.050781 1.546875 -0.96875 1.546875 -0.871094 L 1.546875 -0.714844 C 1.546875 -0.597656 1.523438 -0.484375 1.472656 -0.375 C 1.417969 -0.265625 1.332031 -0.171875 1.214844 -0.0898438 C 1.125 -0.03125 1.019531 0 0.902344 0 L 0.289062 0 C 0.261719 0 0.242188 -0.00390625 0.230469 -0.015625 C 0.21875 -0.0273438 0.214844 -0.0390625 0.214844 -0.0585938 C 0.214844 -0.0742188 0.21875 -0.0898438 0.230469 -0.0976562 C 0.242188 -0.109375 0.261719 -0.113281 0.289062 -0.113281 L 0.386719 -0.113281 M 0.5 -0.113281 L 0.914062 -0.113281 C 1.011719 -0.113281 1.097656 -0.144531 1.183594 -0.207031 C 1.265625 -0.269531 1.328125 -0.34375 1.371094 -0.433594 C 1.414062 -0.519531 1.433594 -0.605469 1.433594 -0.691406 L 1.433594 -0.894531 C 1.433594 -0.96875 1.421875 -1.03125 1.402344 -1.085938 C 1.367188 -1.164062 1.320312 -1.242188 1.261719 -1.3125 C 1.230469 -1.355469 1.183594 -1.390625 1.117188 -1.421875 C 1.054688 -1.457031 0.988281 -1.472656 0.914062 -1.472656 L 0.5 -1.472656 Z "/>
</g>
<g id="glyph-1-2">
<path d="M 0.492188 -0.71875 C 0.5625 -0.824219 0.636719 -0.902344 0.710938 -0.949219 C 0.785156 -1 0.867188 -1.023438 0.960938 -1.023438 C 1.082031 -1.023438 1.1875 -0.976562 1.28125 -0.875 C 1.375 -0.773438 1.425781 -0.648438 1.425781 -0.5 C 1.425781 -0.363281 1.382812 -0.242188 1.296875 -0.128906 C 1.210938 -0.015625 1.089844 0.0390625 0.941406 0.0390625 C 0.839844 0.0390625 0.75 0.0117188 0.664062 -0.0507812 C 0.578125 -0.109375 0.511719 -0.203125 0.460938 -0.328125 C 0.402344 -0.484375 0.371094 -0.660156 0.371094 -0.847656 C 0.371094 -0.992188 0.398438 -1.125 0.457031 -1.246094 C 0.5 -1.34375 0.558594 -1.425781 0.628906 -1.496094 C 0.703125 -1.570312 0.789062 -1.628906 0.882812 -1.675781 C 0.980469 -1.71875 1.085938 -1.742188 1.195312 -1.742188 C 1.273438 -1.742188 1.335938 -1.726562 1.386719 -1.695312 C 1.40625 -1.683594 1.417969 -1.664062 1.417969 -1.640625 C 1.417969 -1.625 1.414062 -1.613281 1.402344 -1.601562 C 1.394531 -1.59375 1.382812 -1.585938 1.367188 -1.585938 C 1.355469 -1.585938 1.339844 -1.589844 1.324219 -1.601562 C 1.285156 -1.617188 1.242188 -1.628906 1.183594 -1.628906 C 1.007812 -1.628906 0.847656 -1.550781 0.703125 -1.398438 C 0.558594 -1.25 0.484375 -1.070312 0.484375 -0.859375 C 0.484375 -0.828125 0.488281 -0.785156 0.492188 -0.71875 M 0.519531 -0.53125 C 0.554688 -0.367188 0.609375 -0.25 0.679688 -0.179688 C 0.753906 -0.109375 0.84375 -0.0742188 0.941406 -0.0742188 C 1.042969 -0.0742188 1.128906 -0.113281 1.203125 -0.191406 C 1.273438 -0.269531 1.308594 -0.375 1.308594 -0.5 C 1.308594 -0.617188 1.273438 -0.71875 1.203125 -0.792969 C 1.128906 -0.871094 1.046875 -0.910156 0.957031 -0.910156 C 0.867188 -0.910156 0.785156 -0.875 0.703125 -0.796875 C 0.648438 -0.75 0.585938 -0.660156 0.519531 -0.53125 Z "/>
</g>
<g id="glyph-1-3">
<path d="M 0.519531 -1.585938 L 0.519531 -1.03125 C 0.585938 -1.058594 0.652344 -1.078125 0.710938 -1.09375 C 0.773438 -1.105469 0.832031 -1.113281 0.886719 -1.113281 C 1.03125 -1.113281 1.148438 -1.0625 1.246094 -0.960938 C 1.34375 -0.863281 1.390625 -0.730469 1.390625 -0.566406 C 1.390625 -0.386719 1.335938 -0.238281 1.226562 -0.128906 C 1.117188 -0.015625 0.984375 0.0390625 0.820312 0.0390625 C 0.710938 0.0390625 0.609375 0.015625 0.511719 -0.03125 C 0.4375 -0.0664062 0.375 -0.105469 0.316406 -0.15625 C 0.28125 -0.1875 0.265625 -0.210938 0.265625 -0.230469 C 0.265625 -0.246094 0.269531 -0.261719 0.28125 -0.273438 C 0.292969 -0.285156 0.304688 -0.289062 0.320312 -0.289062 C 0.335938 -0.289062 0.351562 -0.28125 0.367188 -0.265625 C 0.503906 -0.136719 0.652344 -0.0742188 0.816406 -0.0742188 C 0.949219 -0.0742188 1.058594 -0.117188 1.144531 -0.210938 C 1.230469 -0.300781 1.273438 -0.421875 1.273438 -0.574219 C 1.273438 -0.699219 1.238281 -0.804688 1.164062 -0.882812 C 1.085938 -0.960938 0.992188 -1 0.875 -1 C 0.757812 -1 0.640625 -0.96875 0.519531 -0.90625 C 0.492188 -0.890625 0.472656 -0.882812 0.460938 -0.882812 C 0.445312 -0.882812 0.429688 -0.890625 0.421875 -0.902344 C 0.410156 -0.910156 0.40625 -0.925781 0.40625 -0.945312 L 0.40625 -1.703125 L 1.199219 -1.703125 C 1.226562 -1.703125 1.246094 -1.695312 1.257812 -1.6875 C 1.269531 -1.675781 1.277344 -1.660156 1.277344 -1.644531 C 1.277344 -1.628906 1.269531 -1.613281 1.257812 -1.601562 C 1.246094 -1.59375 1.226562 -1.585938 1.199219 -1.585938 Z "/>
</g>
<g id="glyph-1-4">
<path d="M 0.34375 -0.113281 L 1.21875 -0.113281 L 1.21875 -0.160156 C 1.21875 -0.1875 1.222656 -0.207031 1.234375 -0.21875 C 1.246094 -0.230469 1.257812 -0.234375 1.277344 -0.234375 C 1.292969 -0.234375 1.304688 -0.230469 1.316406 -0.21875 C 1.328125 -0.207031 1.332031 -0.1875 1.332031 -0.160156 L 1.332031 0 L 0.230469 0 L 0.230469 -0.167969 C 0.464844 -0.375 0.6875 -0.585938 0.90625 -0.804688 C 1.007812 -0.902344 1.078125 -0.976562 1.117188 -1.023438 C 1.15625 -1.070312 1.179688 -1.113281 1.195312 -1.148438 C 1.210938 -1.183594 1.214844 -1.21875 1.214844 -1.253906 C 1.214844 -1.351562 1.175781 -1.441406 1.097656 -1.515625 C 1.019531 -1.589844 0.925781 -1.628906 0.8125 -1.628906 C 0.714844 -1.628906 0.625 -1.597656 0.550781 -1.542969 C 0.472656 -1.484375 0.421875 -1.414062 0.398438 -1.332031 C 0.394531 -1.308594 0.386719 -1.292969 0.378906 -1.289062 C 0.367188 -1.277344 0.355469 -1.273438 0.339844 -1.273438 C 0.328125 -1.273438 0.3125 -1.28125 0.304688 -1.289062 C 0.292969 -1.300781 0.289062 -1.3125 0.289062 -1.328125 C 0.289062 -1.371094 0.3125 -1.429688 0.359375 -1.503906 C 0.40625 -1.578125 0.472656 -1.636719 0.554688 -1.679688 C 0.640625 -1.722656 0.726562 -1.742188 0.8125 -1.742188 C 0.953125 -1.742188 1.078125 -1.691406 1.179688 -1.59375 C 1.28125 -1.496094 1.332031 -1.382812 1.332031 -1.261719 C 1.332031 -1.207031 1.324219 -1.160156 1.304688 -1.117188 C 1.289062 -1.070312 1.257812 -1.023438 1.21875 -0.972656 C 1.175781 -0.917969 1.101562 -0.839844 0.996094 -0.738281 C 0.730469 -0.472656 0.511719 -0.269531 0.34375 -0.121094 Z "/>
</g>
<g id="glyph-1-5">
<path d="M 1.214844 -1.535156 L 1.214844 -1.585938 L 0.398438 -1.585938 L 0.398438 -1.484375 C 0.398438 -1.460938 0.394531 -1.441406 0.382812 -1.429688 C 0.375 -1.417969 0.359375 -1.410156 0.34375 -1.410156 C 0.328125 -1.410156 0.3125 -1.417969 0.300781 -1.429688 C 0.292969 -1.441406 0.285156 -1.460938 0.285156 -1.484375 L 0.285156 -1.703125 L 1.332031 -1.703125 L 1.332031 -1.519531 L 0.875 -0.0546875 C 0.867188 -0.03125 0.859375 -0.015625 0.847656 -0.0078125 C 0.835938 0 0.828125 0.00390625 0.8125 0.00390625 C 0.796875 0.00390625 0.785156 -0.00390625 0.773438 -0.0117188 C 0.761719 -0.0234375 0.757812 -0.0351562 0.757812 -0.0507812 C 0.757812 -0.0625 0.757812 -0.0742188 0.765625 -0.0898438 Z "/>
</g>
<g id="glyph-1-6">
<path d="M 0.558594 -0.765625 L 0.558594 -0.113281 L 0.949219 -0.113281 C 0.976562 -0.113281 0.996094 -0.109375 1.007812 -0.0976562 C 1.019531 -0.0898438 1.023438 -0.0742188 1.023438 -0.0585938 C 1.023438 -0.0390625 1.019531 -0.0273438 1.007812 -0.015625 C 0.996094 -0.00390625 0.976562 0 0.949219 0 L 0.292969 0 C 0.265625 0 0.246094 -0.00390625 0.234375 -0.015625 C 0.222656 -0.0273438 0.214844 -0.0390625 0.214844 -0.0585938 C 0.214844 -0.0742188 0.222656 -0.0898438 0.234375 -0.0976562 C 0.246094 -0.109375 0.265625 -0.113281 0.292969 -0.113281 L 0.445312 -0.113281 L 0.445312 -1.472656 L 0.292969 -1.472656 C 0.265625 -1.472656 0.246094 -1.476562 0.234375 -1.488281 C 0.222656 -1.5 0.214844 -1.511719 0.214844 -1.53125 C 0.214844 -1.546875 0.222656 -1.5625 0.234375 -1.574219 C 0.246094 -1.582031 0.265625 -1.585938 0.292969 -1.585938 L 1.546875 -1.585938 L 1.546875 -1.195312 C 1.546875 -1.167969 1.539062 -1.148438 1.53125 -1.136719 C 1.519531 -1.125 1.503906 -1.117188 1.488281 -1.117188 C 1.472656 -1.117188 1.457031 -1.125 1.445312 -1.136719 C 1.4375 -1.148438 1.429688 -1.167969 1.429688 -1.195312 L 1.429688 -1.472656 L 0.558594 -1.472656 L 0.558594 -0.878906 L 0.96875 -0.878906 L 0.96875 -1.007812 C 0.96875 -1.035156 0.972656 -1.054688 0.984375 -1.066406 C 0.992188 -1.078125 1.007812 -1.085938 1.023438 -1.085938 C 1.042969 -1.085938 1.054688 -1.078125 1.066406 -1.066406 C 1.078125 -1.054688 1.082031 -1.035156 1.082031 -1.007812 L 1.082031 -0.636719 C 1.082031 -0.609375 1.078125 -0.589844 1.066406 -0.578125 C 1.054688 -0.566406 1.042969 -0.5625 1.023438 -0.5625 C 1.007812 -0.5625 0.992188 -0.566406 0.984375 -0.578125 C 0.972656 -0.589844 0.96875 -0.609375 0.96875 -0.636719 L 0.96875 -0.765625 Z "/>
</g>
<g id="glyph-1-7">
<path d="M 1.300781 -0.960938 C 1.242188 -0.859375 1.171875 -0.78125 1.089844 -0.726562 C 1.011719 -0.675781 0.925781 -0.648438 0.84375 -0.648438 C 0.761719 -0.648438 0.6875 -0.671875 0.613281 -0.71875 C 0.539062 -0.761719 0.480469 -0.828125 0.4375 -0.917969 C 0.394531 -1.003906 0.371094 -1.09375 0.371094 -1.191406 C 0.371094 -1.328125 0.417969 -1.457031 0.503906 -1.570312 C 0.589844 -1.683594 0.703125 -1.742188 0.847656 -1.742188 C 0.953125 -1.742188 1.046875 -1.710938 1.132812 -1.644531 C 1.214844 -1.582031 1.28125 -1.488281 1.328125 -1.367188 C 1.390625 -1.210938 1.417969 -1.027344 1.417969 -0.820312 C 1.417969 -0.660156 1.394531 -0.527344 1.34375 -0.421875 C 1.308594 -0.347656 1.257812 -0.277344 1.191406 -0.210938 C 1.125 -0.140625 1.050781 -0.0859375 0.96875 -0.0429688 C 0.851562 0.0117188 0.734375 0.0390625 0.613281 0.0390625 C 0.53125 0.0390625 0.464844 0.0234375 0.414062 -0.00390625 C 0.390625 -0.0195312 0.378906 -0.0390625 0.378906 -0.0585938 C 0.378906 -0.0742188 0.382812 -0.0898438 0.394531 -0.0976562 C 0.402344 -0.109375 0.417969 -0.113281 0.433594 -0.113281 C 0.445312 -0.113281 0.460938 -0.109375 0.480469 -0.0976562 C 0.515625 -0.0820312 0.554688 -0.0742188 0.601562 -0.0742188 C 0.792969 -0.0742188 0.960938 -0.144531 1.097656 -0.28125 C 1.238281 -0.421875 1.304688 -0.59375 1.304688 -0.804688 C 1.304688 -0.839844 1.304688 -0.894531 1.300781 -0.960938 M 1.277344 -1.152344 C 1.230469 -1.335938 1.171875 -1.460938 1.101562 -1.527344 C 1.03125 -1.59375 0.945312 -1.628906 0.851562 -1.628906 C 0.753906 -1.628906 0.671875 -1.585938 0.597656 -1.503906 C 0.523438 -1.425781 0.488281 -1.320312 0.488281 -1.191406 C 0.488281 -1.066406 0.523438 -0.964844 0.597656 -0.886719 C 0.671875 -0.804688 0.753906 -0.761719 0.84375 -0.761719 C 0.898438 -0.761719 0.949219 -0.777344 1.003906 -0.808594 C 1.054688 -0.835938 1.105469 -0.878906 1.148438 -0.9375 C 1.179688 -0.976562 1.222656 -1.046875 1.277344 -1.152344 Z "/>
</g>
<g id="glyph-2-0">
</g>
<g id="glyph-2-1">
<path d="M 3.851562 -1.246094 L 3.769531 0 L 0.257812 0 L 0.257812 -0.210938 C 0.316406 -0.214844 0.394531 -0.222656 0.496094 -0.238281 C 0.59375 -0.25 0.660156 -0.261719 0.6875 -0.277344 C 0.753906 -0.308594 0.796875 -0.347656 0.820312 -0.394531 C 0.847656 -0.441406 0.859375 -0.503906 0.859375 -0.574219 L 0.859375 -3.621094 C 0.859375 -3.683594 0.847656 -3.742188 0.828125 -3.792969 C 0.804688 -3.84375 0.757812 -3.886719 0.6875 -3.917969 C 0.636719 -3.945312 0.5625 -3.964844 0.472656 -3.984375 C 0.382812 -4.007812 0.308594 -4.019531 0.257812 -4.023438 L 0.257812 -4.234375 L 3.53125 -4.234375 L 3.53125 -3.214844 L 3.308594 -3.214844 C 3.269531 -3.363281 3.183594 -3.523438 3.050781 -3.695312 C 2.917969 -3.867188 2.792969 -3.957031 2.671875 -3.972656 C 2.613281 -3.980469 2.539062 -3.988281 2.453125 -3.992188 C 2.367188 -3.996094 2.269531 -4 2.160156 -4 L 1.496094 -4 L 1.496094 -2.316406 L 1.972656 -2.316406 C 2.125 -2.316406 2.238281 -2.328125 2.308594 -2.359375 C 2.378906 -2.386719 2.441406 -2.4375 2.496094 -2.503906 C 2.539062 -2.5625 2.574219 -2.636719 2.605469 -2.734375 C 2.636719 -2.832031 2.65625 -2.921875 2.667969 -3.007812 L 2.890625 -3.007812 L 2.890625 -1.347656 L 2.667969 -1.347656 C 2.660156 -1.445312 2.636719 -1.546875 2.601562 -1.652344 C 2.570312 -1.757812 2.53125 -1.835938 2.496094 -1.882812 C 2.433594 -1.960938 2.363281 -2.011719 2.285156 -2.035156 C 2.207031 -2.058594 2.101562 -2.070312 1.972656 -2.070312 L 1.496094 -2.070312 L 1.496094 -0.800781 C 1.496094 -0.675781 1.503906 -0.574219 1.523438 -0.5 C 1.539062 -0.425781 1.574219 -0.371094 1.625 -0.335938 C 1.679688 -0.296875 1.75 -0.273438 1.839844 -0.261719 C 1.925781 -0.25 2.054688 -0.246094 2.21875 -0.246094 C 2.285156 -0.246094 2.371094 -0.246094 2.480469 -0.246094 C 2.585938 -0.246094 2.675781 -0.25 2.75 -0.257812 C 2.828125 -0.265625 2.90625 -0.277344 2.984375 -0.300781 C 3.066406 -0.320312 3.121094 -0.347656 3.15625 -0.386719 C 3.25 -0.480469 3.34375 -0.625 3.445312 -0.820312 C 3.546875 -1.011719 3.609375 -1.15625 3.636719 -1.246094 Z "/>
</g>
<g id="glyph-2-2">
<path d="M 2.089844 0.980469 C 1.546875 0.910156 1.121094 0.636719 0.8125 0.15625 C 0.503906 -0.320312 0.347656 -0.964844 0.347656 -1.777344 C 0.347656 -2.605469 0.503906 -3.257812 0.8125 -3.738281 C 1.121094 -4.222656 1.546875 -4.5 2.089844 -4.570312 L 2.089844 -4.324219 C 1.710938 -4.253906 1.417969 -4.011719 1.21875 -3.59375 C 1.019531 -3.175781 0.921875 -2.566406 0.921875 -1.773438 C 0.921875 -1.015625 1.019531 -0.425781 1.214844 -0.00390625 C 1.410156 0.417969 1.703125 0.664062 2.089844 0.734375 Z "/>
</g>
<g id="glyph-2-3">
<path d="M 2.03125 -0.128906 C 1.902344 -0.0742188 1.78125 -0.03125 1.664062 0.0078125 C 1.550781 0.0429688 1.410156 0.0625 1.242188 0.0625 C 0.996094 0.0625 0.820312 0 0.71875 -0.125 C 0.621094 -0.25 0.570312 -0.421875 0.570312 -0.652344 L 0.570312 -2.644531 L 0.0390625 -2.644531 L 0.0390625 -2.929688 L 0.582031 -2.929688 L 0.582031 -3.847656 L 1.125 -3.847656 L 1.125 -2.929688 L 1.96875 -2.929688 L 1.96875 -2.644531 L 1.128906 -2.644531 L 1.128906 -1 C 1.128906 -0.875 1.136719 -0.773438 1.144531 -0.691406 C 1.152344 -0.609375 1.175781 -0.535156 1.207031 -0.472656 C 1.242188 -0.417969 1.289062 -0.371094 1.351562 -0.34375 C 1.414062 -0.3125 1.5 -0.296875 1.609375 -0.296875 C 1.65625 -0.296875 1.730469 -0.304688 1.828125 -0.3125 C 1.925781 -0.320312 1.992188 -0.332031 2.03125 -0.347656 Z "/>
</g>
<g id="glyph-2-4">
<path d="M 1.941406 -1.777344 C 1.941406 -0.964844 1.789062 -0.320312 1.476562 0.15625 C 1.167969 0.636719 0.742188 0.910156 0.199219 0.980469 L 0.199219 0.734375 C 0.589844 0.664062 0.882812 0.417969 1.078125 -0.00390625 C 1.273438 -0.425781 1.371094 -1.015625 1.371094 -1.773438 C 1.371094 -2.566406 1.269531 -3.175781 1.070312 -3.59375 C 0.871094 -4.011719 0.582031 -4.253906 0.199219 -4.324219 L 0.199219 -4.570312 C 0.742188 -4.5 1.167969 -4.222656 1.476562 -3.738281 C 1.789062 -3.257812 1.941406 -2.605469 1.941406 -1.777344 Z "/>
</g>
<g id="glyph-2-5">
<path d="M 3.46875 -2.039062 L 0.460938 -2.039062 L 0.460938 -2.410156 L 3.46875 -2.410156 L 3.46875 -2.039062 M 3.46875 -0.929688 L 0.460938 -0.929688 L 0.460938 -1.300781 L 3.46875 -1.300781 Z "/>
</g>
<g id="glyph-2-6">
<path d="M 3.0625 -2.785156 C 3.191406 -2.632812 3.285156 -2.453125 3.347656 -2.25 C 3.410156 -2.042969 3.441406 -1.828125 3.441406 -1.601562 C 3.441406 -1.332031 3.40625 -1.089844 3.328125 -0.875 C 3.25 -0.660156 3.144531 -0.484375 3.007812 -0.34375 C 2.867188 -0.199219 2.703125 -0.0898438 2.511719 -0.015625 C 2.320312 0.0585938 2.109375 0.09375 1.875 0.09375 C 1.617188 0.09375 1.386719 0.0507812 1.1875 -0.03125 C 0.988281 -0.117188 0.824219 -0.234375 0.699219 -0.386719 C 0.566406 -0.539062 0.46875 -0.722656 0.402344 -0.929688 C 0.339844 -1.136719 0.308594 -1.363281 0.308594 -1.601562 C 0.308594 -1.839844 0.339844 -2.058594 0.402344 -2.253906 C 0.464844 -2.453125 0.5625 -2.632812 0.695312 -2.796875 C 0.824219 -2.949219 0.988281 -3.074219 1.1875 -3.164062 C 1.386719 -3.253906 1.617188 -3.296875 1.875 -3.296875 C 2.148438 -3.296875 2.382812 -3.25 2.578125 -3.160156 C 2.773438 -3.066406 2.933594 -2.945312 3.0625 -2.785156 M 2.785156 -1.601562 C 2.785156 -2.074219 2.703125 -2.441406 2.539062 -2.703125 C 2.378906 -2.964844 2.160156 -3.09375 1.878906 -3.09375 C 1.597656 -3.09375 1.375 -2.964844 1.210938 -2.703125 C 1.046875 -2.441406 0.964844 -2.074219 0.964844 -1.601562 C 0.964844 -1.152344 1.042969 -0.792969 1.199219 -0.519531 C 1.355469 -0.246094 1.582031 -0.105469 1.875 -0.105469 C 2.167969 -0.105469 2.390625 -0.246094 2.546875 -0.519531 C 2.707031 -0.792969 2.785156 -1.152344 2.785156 -1.601562 Z "/>
</g>
<g id="glyph-2-7">
<path d="M 4.597656 -2.75 C 4.515625 -2.742188 4.425781 -2.707031 4.328125 -2.648438 C 4.230469 -2.585938 4.160156 -2.492188 4.117188 -2.367188 C 4.019531 -2.078125 3.925781 -1.800781 3.835938 -1.539062 C 3.746094 -1.277344 3.648438 -0.984375 3.539062 -0.65625 C 3.503906 -0.554688 3.464844 -0.441406 3.429688 -0.320312 C 3.394531 -0.203125 3.359375 -0.0898438 3.328125 0.0195312 L 3.074219 0.0195312 L 2.28125 -2.148438 L 1.488281 0.0195312 L 1.242188 0.0195312 C 1.09375 -0.421875 0.945312 -0.859375 0.804688 -1.292969 C 0.660156 -1.726562 0.535156 -2.105469 0.425781 -2.429688 C 0.394531 -2.523438 0.335938 -2.597656 0.246094 -2.648438 C 0.15625 -2.703125 0.0703125 -2.734375 -0.015625 -2.746094 L -0.015625 -2.941406 L 1.296875 -2.941406 L 1.296875 -2.734375 C 1.230469 -2.730469 1.160156 -2.71875 1.082031 -2.699219 C 1.007812 -2.679688 0.96875 -2.648438 0.96875 -2.601562 C 0.96875 -2.59375 0.972656 -2.578125 0.980469 -2.550781 C 0.988281 -2.523438 0.996094 -2.496094 1.003906 -2.46875 C 1.070312 -2.257812 1.140625 -2.027344 1.222656 -1.769531 C 1.300781 -1.511719 1.40625 -1.179688 1.53125 -0.765625 L 2.28125 -2.882812 L 2.570312 -2.882812 L 3.339844 -0.796875 C 3.425781 -1.0625 3.507812 -1.320312 3.59375 -1.570312 C 3.679688 -1.820312 3.753906 -2.050781 3.816406 -2.269531 C 3.832031 -2.324219 3.84375 -2.371094 3.855469 -2.414062 C 3.871094 -2.457031 3.875 -2.496094 3.875 -2.539062 C 3.875 -2.574219 3.859375 -2.605469 3.828125 -2.632812 C 3.796875 -2.664062 3.757812 -2.683594 3.710938 -2.703125 C 3.671875 -2.71875 3.628906 -2.730469 3.582031 -2.738281 C 3.535156 -2.746094 3.5 -2.75 3.480469 -2.75 L 3.480469 -2.941406 L 4.597656 -2.941406 Z "/>
</g>
<g id="glyph-2-8">
<path d="M 3.367188 -0.0546875 L 2.40625 0.0117188 L 2.363281 -0.03125 L 2.363281 -0.402344 L 2.34375 -0.402344 C 2.296875 -0.351562 2.242188 -0.300781 2.183594 -0.242188 C 2.125 -0.1875 2.054688 -0.136719 1.980469 -0.0898438 C 1.890625 -0.0351562 1.804688 0.00390625 1.71875 0.03125 C 1.636719 0.0625 1.519531 0.0742188 1.367188 0.0742188 C 1.105469 0.0742188 0.90625 -0.0117188 0.769531 -0.179688 C 0.636719 -0.351562 0.566406 -0.597656 0.566406 -0.921875 L 0.566406 -2.328125 C 0.566406 -2.398438 0.554688 -2.460938 0.527344 -2.507812 C 0.5 -2.558594 0.460938 -2.597656 0.40625 -2.632812 C 0.371094 -2.660156 0.328125 -2.675781 0.273438 -2.6875 C 0.21875 -2.699219 0.160156 -2.707031 0.101562 -2.710938 L 0.101562 -2.90625 L 1.082031 -2.976562 L 1.128906 -2.9375 L 1.128906 -0.890625 C 1.128906 -0.679688 1.175781 -0.519531 1.269531 -0.410156 C 1.367188 -0.304688 1.480469 -0.25 1.613281 -0.25 C 1.722656 -0.25 1.820312 -0.265625 1.90625 -0.300781 C 1.992188 -0.335938 2.0625 -0.375 2.121094 -0.421875 C 2.175781 -0.460938 2.222656 -0.507812 2.261719 -0.554688 C 2.304688 -0.601562 2.335938 -0.644531 2.355469 -0.683594 L 2.355469 -2.347656 C 2.355469 -2.414062 2.34375 -2.472656 2.316406 -2.523438 C 2.289062 -2.574219 2.25 -2.617188 2.199219 -2.652344 C 2.164062 -2.675781 2.109375 -2.691406 2.039062 -2.695312 C 1.96875 -2.699219 1.890625 -2.707031 1.800781 -2.710938 L 1.800781 -2.90625 L 2.875 -2.976562 L 2.917969 -2.9375 L 2.917969 -0.601562 C 2.917969 -0.535156 2.933594 -0.476562 2.960938 -0.429688 C 2.988281 -0.382812 3.027344 -0.339844 3.078125 -0.308594 C 3.113281 -0.285156 3.15625 -0.269531 3.203125 -0.265625 C 3.253906 -0.257812 3.308594 -0.253906 3.367188 -0.25 Z "/>
</g>
<g id="glyph-2-9">
<path d="M 2.355469 -0.0117188 L 0.667969 -0.0117188 L 0.667969 -0.222656 C 0.726562 -0.226562 0.8125 -0.230469 0.917969 -0.238281 C 1.027344 -0.246094 1.101562 -0.253906 1.140625 -0.269531 C 1.179688 -0.28125 1.210938 -0.304688 1.238281 -0.335938 C 1.261719 -0.367188 1.273438 -0.410156 1.273438 -0.460938 L 1.273438 -2.34375 L 0.65625 -2.34375 L 0.65625 -2.578125 L 0.839844 -2.578125 C 0.996094 -2.578125 1.140625 -2.605469 1.277344 -2.664062 C 1.414062 -2.71875 1.515625 -2.785156 1.582031 -2.863281 L 1.800781 -2.863281 C 1.796875 -2.773438 1.789062 -2.652344 1.785156 -2.503906 C 1.78125 -2.355469 1.777344 -2.238281 1.777344 -2.152344 L 1.777344 -0.488281 C 1.777344 -0.441406 1.789062 -0.398438 1.8125 -0.363281 C 1.835938 -0.328125 1.867188 -0.300781 1.90625 -0.285156 C 1.945312 -0.265625 2.011719 -0.253906 2.109375 -0.242188 C 2.210938 -0.230469 2.289062 -0.222656 2.355469 -0.222656 Z "/>
</g>
<g id="glyph-2-10">
<path d="M 2.683594 -0.0117188 L 0.4375 -0.0117188 L 0.4375 -0.34375 C 0.515625 -0.472656 0.632812 -0.601562 0.792969 -0.726562 C 0.953125 -0.851562 1.144531 -0.984375 1.371094 -1.125 C 1.4375 -1.167969 1.515625 -1.226562 1.601562 -1.300781 C 1.683594 -1.371094 1.75 -1.4375 1.796875 -1.5 C 1.855469 -1.582031 1.902344 -1.664062 1.933594 -1.75 C 1.960938 -1.835938 1.976562 -1.945312 1.976562 -2.078125 C 1.976562 -2.269531 1.929688 -2.414062 1.832031 -2.511719 C 1.734375 -2.613281 1.605469 -2.660156 1.445312 -2.660156 C 1.332031 -2.660156 1.238281 -2.640625 1.15625 -2.601562 C 1.074219 -2.566406 1.015625 -2.519531 0.980469 -2.46875 C 0.992188 -2.417969 1.007812 -2.367188 1.023438 -2.304688 C 1.035156 -2.246094 1.042969 -2.179688 1.042969 -2.117188 C 1.042969 -2.054688 1.015625 -2 0.960938 -1.953125 C 0.90625 -1.910156 0.828125 -1.886719 0.722656 -1.886719 C 0.625 -1.886719 0.558594 -1.917969 0.519531 -1.980469 C 0.476562 -2.042969 0.457031 -2.113281 0.457031 -2.191406 C 0.457031 -2.371094 0.558594 -2.53125 0.769531 -2.671875 C 0.976562 -2.816406 1.21875 -2.886719 1.492188 -2.886719 C 1.804688 -2.886719 2.058594 -2.808594 2.253906 -2.660156 C 2.453125 -2.511719 2.550781 -2.308594 2.550781 -2.054688 C 2.550781 -1.90625 2.527344 -1.777344 2.484375 -1.667969 C 2.4375 -1.554688 2.378906 -1.460938 2.304688 -1.382812 C 2.230469 -1.304688 2.140625 -1.230469 2.046875 -1.171875 C 1.949219 -1.113281 1.847656 -1.058594 1.746094 -1.007812 C 1.617188 -0.945312 1.464844 -0.863281 1.28125 -0.761719 C 1.097656 -0.65625 0.949219 -0.550781 0.832031 -0.441406 L 2.683594 -0.441406 Z "/>
</g>
<g id="glyph-3-0">
<path d="M 3.054688 0.0234375 L 0.859375 -3.960938 L 1.3125 -4.226562 L 1.863281 -3.246094 L 4.25 -3.246094 L 4.796875 -4.226562 L 5.25 -3.960938 L 3.054688 0.0234375 M 2.101562 -2.746094 L 3.054688 -1.050781 L 4.011719 -2.746094 Z "/>
</g>
<g id="glyph-3-1">
<path d="M 1.003906 -1.195312 C 1.003906 -1.257812 0.996094 -1.3125 0.980469 -1.359375 C 0.980469 -1.503906 1.074219 -1.632812 1.265625 -1.742188 C 1.390625 -1.804688 1.488281 -1.839844 1.550781 -1.839844 C 1.632812 -1.820312 1.6875 -1.773438 1.71875 -1.695312 C 1.8125 -1.472656 1.878906 -1.320312 1.910156 -1.242188 C 1.941406 -1.175781 1.972656 -1.144531 2.003906 -1.144531 C 2.035156 -1.144531 2.070312 -1.167969 2.101562 -1.21875 C 2.640625 -2.171875 3.125 -2.914062 3.554688 -3.4375 C 3.890625 -3.835938 4.097656 -4.066406 4.175781 -4.128906 C 4.433594 -4.320312 4.734375 -4.425781 5.085938 -4.441406 L 5.109375 -4.320312 C 4.835938 -4.050781 4.367188 -3.445312 3.699219 -2.507812 C 3.046875 -1.566406 2.578125 -0.828125 2.292969 -0.285156 C 2.226562 -0.144531 2.148438 -0.0546875 2.054688 -0.0234375 C 2.003906 0.0234375 1.902344 0.0390625 1.742188 0.0234375 C 1.632812 0.0390625 1.550781 0.0234375 1.503906 -0.0234375 C 1.457031 -0.0546875 1.410156 -0.121094 1.359375 -0.214844 C 1.203125 -0.597656 1.082031 -0.921875 1.003906 -1.195312 Z "/>
</g>
</g>
</defs>
<g fill="rgb(20.392157%, 82.745098%, 60%)" fill-opacity="1">
<use xlink:href="#glyph-0-0" x="30" y="26.918945"/>
</g>
<path fill="none" stroke-width="0.161468" stroke-linecap="butt" stroke-linejoin="miter" stroke="rgb(20.392157%, 82.745098%, 60%)" stroke-opacity="1" stroke-miterlimit="2" d="M 42.082031 20.242188 L 49.976562 20.242188 L 49.976562 28.453125 L 42.082031 28.453125 Z "/>
<g fill="rgb(20.392157%, 82.745098%, 60%)" fill-opacity="1">
<use xlink:href="#glyph-1-0" x="42.324219" y="24.265625"/>
</g>
<g fill="rgb(20.392157%, 82.745098%, 60%)" fill-opacity="1">
<use xlink:href="#glyph-1-1" x="46.109375" y="24.265625"/>
</g>
<g fill="rgb(20.392157%, 82.745098%, 60%)" fill-opacity="1">
<use xlink:href="#glyph-1-2" x="42.324219" y="28.210938"/>
</g>
<g fill="rgb(20.392157%, 82.745098%, 60%)" fill-opacity="1">
<use xlink:href="#glyph-1-3" x="46.109375" y="28.210938"/>
</g>
<g fill="rgb(20.392157%, 82.745098%, 60%)" fill-opacity="1">
<use xlink:href="#glyph-2-0" x="36" y="26.918945"/>
<use xlink:href="#glyph-2-0" x="37" y="26.918945"/>
<use xlink:href="#glyph-2-1" x="38" y="26.918945"/>
<use xlink:href="#glyph-2-2" x="50" y="26.918945"/>
<use xlink:href="#glyph-2-3" x="52" y="26.918945"/>
<use xlink:href="#glyph-2-4" x="54" y="26.918945"/>
<use xlink:href="#glyph-2-0" x="56" y="26.918945"/>
<use xlink:href="#glyph-2-5" x="57" y="26.918945"/>
<use xlink:href="#glyph-2-0" x="61" y="26.918945"/>
<use xlink:href="#glyph-2-6" x="62" y="26.918945"/>
<use xlink:href="#glyph-2-0" x="66" y="26.918945"/>
</g>
<g fill="rgb(20.392157%, 82.745098%, 60%)" fill-opacity="1">
<use xlink:href="#glyph-3-0" x="67" y="26.918945"/>
</g>
<path fill="none" stroke-width="0.161468" stroke-linecap="butt" stroke-linejoin="miter" stroke="rgb(20.392157%, 82.745098%, 60%)" stroke-opacity="1" stroke-miterlimit="2" d="M 77.082031 20.242188 L 84.976562 20.242188 L 84.976562 28.453125 L 77.082031 28.453125 Z "/>
<g fill="rgb(20.392157%, 82.745098%, 60%)" fill-opacity="1">
<use xlink:href="#glyph-1-4" x="77.324219" y="24.265625"/>
</g>
<g fill="rgb(20.392157%, 82.745098%, 60%)" fill-opacity="1">
<use xlink:href="#glyph-1-5" x="81.109375" y="24.265625"/>
</g>
<g fill="rgb(20.392157%, 82.745098%, 60%)" fill-opacity="1">
<use xlink:href="#glyph-1-6" x="77.324219" y="28.210938"/>
</g>
<g fill="rgb(20.392157%, 82.745098%, 60%)" fill-opacity="1">
<use xlink:href="#glyph-1-7" x="81.109375" y="28.210938"/>
</g>
<g fill="rgb(20.392157%, 82.745098%, 60%)" fill-opacity="1">
<use xlink:href="#glyph-2-3" x="73" y="26.918945"/>
<use xlink:href="#glyph-2-0" x="75" y="26.918945"/>
<use xlink:href="#glyph-2-0" x="76" y="26.918945"/>
<use xlink:href="#glyph-2-0" x="85" y="26.918945"/>
<use xlink:href="#glyph-2-0" x="86" y="26.918945"/>
<use xlink:href="#glyph-2-7" x="87" y="26.918945"/>
<use xlink:href="#glyph-2-0" x="92" y="26.918945"/>
</g>
<g fill="rgb(20.392157%, 82.745098%, 60%)" fill-opacity="1">
<use xlink:href="#glyph-0-1" x="93" y="26.918945"/>
</g>
<path fill="none" stroke-width="0.161468" stroke-linecap="butt" stroke-linejoin="miter" stroke="rgb(20.392157%, 82.745098%, 60%)" stroke-opacity="1" stroke-miterlimit="2" d="M 106.082031 20.242188 L 113.976562 20.242188 L 113.976562 28.453125 L 106.082031 28.453125 Z "/>
<g fill="rgb(20.392157%, 82.745098%, 60%)" fill-opacity="1">
<use xlink:href="#glyph-1-4" x="106.324219" y="24.265625"/>
</g>
<g fill="rgb(20.392157%, 82.745098%, 60%)" fill-opacity="1">
<use xlink:href="#glyph-1-5" x="110.109375" y="24.265625"/>
</g>
<g fill="rgb(20.392157%, 82.745098%, 60%)" fill-opacity="1">
<use xlink:href="#glyph-1-6" x="106.324219" y="28.210938"/>
</g>
<g fill="rgb(20.392157%, 82.745098%, 60%)" fill-opacity="1">
<use xlink:href="#glyph-1-7" x="110.109375" y="28.210938"/>
</g>
<g fill="rgb(20.392157%, 82.745098%, 60%)" fill-opacity="1">
<use xlink:href="#glyph-2-0" x="99" y="26.918945"/>
<use xlink:href="#glyph-2-6" x="100" y="26.918945"/>
<use xlink:href="#glyph-2-0" x="104" y="26.918945"/>
<use xlink:href="#glyph-2-0" x="105" y="26.918945"/>
<use xlink:href="#glyph-2-0" x="114" y="26.918945"/>
<use xlink:href="#glyph-2-0" x="115" y="26.918945"/>
<use xlink:href="#glyph-2-8" x="116" y="26.918945"/>
<use xlink:href="#glyph-2-9" x="120" y="26.918945"/>
<use xlink:href="#glyph-2-0" x="123" y="26.918945"/>
<use xlink:href="#glyph-2-5" x="124" y="26.918945"/>
<use xlink:href="#glyph-2-0" x="128" y="26.918945"/>
<use xlink:href="#glyph-2-8" x="129" y="26.918945"/>
<use xlink:href="#glyph-2-10" x="133" y="26.918945"/>
<use xlink:href="#glyph-2-0" x="136" y="26.918945"/>
<use xlink:href="#glyph-2-0" x="137" y="26.918945"/>
</g>
<g fill="rgb(20.392157%, 82.745098%, 60%)" fill-opacity="1">
<use xlink:href="#glyph-3-1" x="138" y="26.918945"/>
</g>
</svg>
