<?xml version="1.0" encoding="UTF-8"?>
<svg xmlns="http://www.w3.org/2000/svg" xmlns:xlink="http://www.w3.org/1999/xlink" width="1920" height="1080" viewBox="0 0 1920 1080">
<defs>
<g>
<g id="glyph-0-0">
<path d="M 3.824219 0 L 2.386719 0 L 2.386719 -0.171875 C 2.425781 -0.175781 2.484375 -0.179688 2.558594 -0.1875 C 2.632812 -0.195312 2.683594 -0.203125 2.710938 -0.21875 C 2.757812 -0.238281 2.792969 -0.265625 2.816406 -0.304688 C 2.839844 -0.347656 2.851562 -0.398438 2.851562 -0.460938 L 2.851562 -1.695312 L 1.222656 -1.695312 L 1.222656 -0.488281 C 1.222656 -0.429688 1.234375 -0.382812 1.25 -0.34375 C 1.269531 -0.304688 1.308594 -0.269531 1.363281 -0.242188 C 1.390625 -0.226562 1.4375 -0.210938 1.511719 -0.199219 C 1.582031 -0.183594 1.636719 -0.175781 1.675781 -0.171875 L 1.675781 0 L 0.238281 0 L 0.238281 -0.171875 C 0.277344 -0.175781 0.335938 -0.179688 0.410156 -0.1875 C 0.484375 -0.195312 0.535156 -0.203125 0.5625 -0.21875 C 0.609375 -0.238281 0.644531 -0.265625 0.667969 -0.304688 C 0.691406 -0.347656 0.703125 -0.398438 0.703125 -0.460938 L 0.703125 -2.960938 C 0.703125 -3.011719 0.691406 -3.0625 0.671875 -3.105469 C 0.648438 -3.148438 0.613281 -3.179688 0.5625 -3.207031 C 0.515625 -3.226562 0.464844 -3.246094 0.402344 -3.261719 C 0.339844 -3.277344 0.285156 -3.289062 0.238281 -3.289062 L 0.238281 -3.464844 L 1.675781 -3.464844 L 1.675781 -3.289062 C 1.632812 -3.289062 1.574219 -3.28125 1.511719 -3.269531 C 1.445312 -3.257812 1.394531 -3.242188 1.363281 -3.234375 C 1.308594 -3.210938 1.269531 -3.179688 1.25 -3.132812 C 1.234375 -3.089844 1.222656 -3.039062 1.222656 -2.984375 L 1.222656 -1.910156 L 2.851562 -1.910156 L 2.851562 -2.960938 C 2.851562 -3.011719 2.839844 -3.0625 2.820312 -3.105469 C 2.796875 -3.148438 2.761719 -3.179688 2.710938 -3.207031 C 2.664062 -3.226562 2.613281 -3.246094 2.550781 -3.261719 C 2.488281 -3.277344 2.433594 -3.289062 2.386719 -3.289062 L 2.386719 -3.464844 L 3.824219 -3.464844 L 3.824219 -3.289062 C 3.78125 -3.289062 3.722656 -3.28125 3.660156 -3.269531 C 3.59375 -3.257812 3.542969 -3.242188 3.511719 -3.234375 C 3.457031 -3.210938 3.417969 -3.179688 3.398438 -3.132812 C 3.382812 -3.089844 3.371094 -3.039062 3.371094 -2.984375 L 3.371094 -0.488281 C 3.371094 -0.429688 3.382812 -0.382812 3.398438 -0.34375 C 3.417969 -0.304688 3.457031 -0.269531 3.511719 -0.242188 C 3.539062 -0.226562 3.585938 -0.210938 3.660156 -0.199219 C 3.730469 -0.183594 3.785156 -0.175781 3.824219 -0.171875 Z "/>
</g>
<g id="glyph-0-1">
<path d="M 2.523438 -1.226562 C 2.523438 -1.058594 2.496094 -0.890625 2.445312 -0.730469 C 2.390625 -0.566406 2.3125 -0.425781 2.214844 -0.3125 C 2.101562 -0.183594 1.972656 -0.0859375 1.824219 -0.0234375 C 1.675781 0.0429688 1.507812 0.0742188 1.324219 0.0742188 C 1.171875 0.0742188 1.027344 0.0429688 0.886719 -0.0117188 C 0.75 -0.0703125 0.625 -0.15625 0.519531 -0.265625 C 0.410156 -0.375 0.328125 -0.507812 0.265625 -0.664062 C 0.203125 -0.824219 0.171875 -1 0.171875 -1.195312 C 0.171875 -1.570312 0.28125 -1.878906 0.5 -2.117188 C 0.71875 -2.355469 1.007812 -2.476562 1.359375 -2.476562 C 1.699219 -2.476562 1.976562 -2.363281 2.195312 -2.136719 C 2.414062 -1.90625 2.523438 -1.605469 2.523438 -1.226562 M 2.019531 -1.222656 C 2.019531 -1.34375 2.007812 -1.472656 1.980469 -1.609375 C 1.957031 -1.746094 1.921875 -1.859375 1.871094 -1.957031 C 1.820312 -2.054688 1.75 -2.136719 1.667969 -2.199219 C 1.582031 -2.257812 1.476562 -2.289062 1.355469 -2.289062 C 1.230469 -2.289062 1.125 -2.257812 1.035156 -2.195312 C 0.945312 -2.136719 0.875 -2.050781 0.816406 -1.945312 C 0.765625 -1.84375 0.730469 -1.730469 0.707031 -1.605469 C 0.6875 -1.476562 0.675781 -1.355469 0.675781 -1.234375 C 0.675781 -1.078125 0.6875 -0.933594 0.714844 -0.800781 C 0.738281 -0.667969 0.78125 -0.550781 0.835938 -0.445312 C 0.890625 -0.34375 0.960938 -0.261719 1.042969 -0.203125 C 1.128906 -0.140625 1.230469 -0.113281 1.355469 -0.113281 C 1.558594 -0.113281 1.722656 -0.210938 1.839844 -0.40625 C 1.960938 -0.605469 2.019531 -0.875 2.019531 -1.222656 Z "/>
</g>
<g id="glyph-0-2">
<path d="M 1.664062 -0.105469 C 1.558594 -0.0625 1.457031 -0.0234375 1.363281 0.0078125 C 1.269531 0.0351562 1.152344 0.0507812 1.015625 0.0507812 C 0.8125 0.0507812 0.671875 0 0.589844 -0.101562 C 0.507812 -0.203125 0.464844 -0.347656 0.464844 -0.53125 L 0.464844 -2.164062 L 0.03125 -2.164062 L 0.03125 -2.398438 L 0.476562 -2.398438 L 0.476562 -3.148438 L 0.921875 -3.148438 L 0.921875 -2.398438 L 1.609375 -2.398438 L 1.609375 -2.164062 L 0.925781 -2.164062 L 0.925781 -0.816406 C 0.925781 -0.71875 0.929688 -0.632812 0.9375 -0.566406 C 0.945312 -0.496094 0.960938 -0.4375 0.988281 -0.386719 C 1.015625 -0.339844 1.054688 -0.304688 1.105469 -0.28125 C 1.15625 -0.257812 1.226562 -0.242188 1.316406 -0.242188 C 1.355469 -0.242188 1.417969 -0.246094 1.496094 -0.253906 C 1.574219 -0.261719 1.628906 -0.273438 1.664062 -0.28125 Z "/>
</g>
</g>
</defs>
<g fill="rgb(100%, 41.960784%, 41.960784%)" fill-opacity="1">
<use xlink:href="#glyph-0-0" x="30" y="24.584961"/>
<use xlink:href="#glyph-0-1" x="34" y="24.584961"/>
<use xlink:href="#glyph-0-2" x="37" y="24.584961"/>
</g>
</svg>
