<?xml version="1.0" encoding="UTF-8"?>
<svg xmlns="http://www.w3.org/2000/svg" xmlns:xlink="http://www.w3.org/1999/xlink" width="854" height="480" viewBox="0 0 854 480">
<defs>
<g>
<g id="glyph-0-0">
<path d="M 4.554688 -3.464844 C 4.554688 -3.203125 4.5 -2.980469 4.394531 -2.792969 C 4.285156 -2.605469 4.136719 -2.449219 3.949219 -2.335938 C 3.753906 -2.210938 3.53125 -2.125 3.28125 -2.070312 C 3.027344 -2.015625 2.746094 -1.988281 2.433594 -1.988281 L 2.058594 -1.988281 L 2.058594 -0.691406 C 2.058594 -0.613281 2.070312 -0.542969 2.101562 -0.488281 C 2.128906 -0.429688 2.1875 -0.382812 2.269531 -0.347656 C 2.3125 -0.332031 2.382812 -0.3125 2.480469 -0.292969 C 2.578125 -0.273438 2.660156 -0.261719 2.726562 -0.253906 L 2.726562 0 L 0.222656 0 L 0.222656 -0.253906 C 0.289062 -0.261719 0.371094 -0.269531 0.476562 -0.28125 C 0.578125 -0.292969 0.652344 -0.308594 0.691406 -0.324219 C 0.777344 -0.359375 0.832031 -0.402344 0.859375 -0.453125 C 0.886719 -0.503906 0.902344 -0.570312 0.902344 -0.660156 L 0.902344 -3.917969 C 0.902344 -3.996094 0.886719 -4.0625 0.863281 -4.117188 C 0.835938 -4.171875 0.78125 -4.21875 0.691406 -4.253906 C 0.632812 -4.28125 0.550781 -4.304688 0.449219 -4.324219 C 0.351562 -4.34375 0.273438 -4.359375 0.222656 -4.367188 L 0.222656 -4.617188 L 2.773438 -4.617188 C 3.371094 -4.617188 3.816406 -4.523438 4.109375 -4.335938 C 4.40625 -4.144531 4.554688 -3.855469 4.554688 -3.464844 M 3.285156 -3.296875 C 3.285156 -3.644531 3.214844 -3.902344 3.074219 -4.070312 C 2.933594 -4.238281 2.683594 -4.324219 2.328125 -4.324219 L 2.058594 -4.324219 L 2.058594 -2.296875 L 2.195312 -2.296875 C 2.550781 -2.296875 2.820312 -2.375 3.007812 -2.539062 C 3.191406 -2.703125 3.285156 -2.957031 3.285156 -3.296875 Z "/>
</g>
<g id="glyph-0-1">
<path d="M 4.382812 -4.144531 C 4.667969 -3.960938 4.894531 -3.714844 5.066406 -3.40625 C 5.242188 -3.097656 5.328125 -2.722656 5.328125 -2.277344 C 5.328125 -1.886719 5.25 -1.546875 5.097656 -1.257812 C 4.941406 -0.96875 4.734375 -0.730469 4.480469 -0.546875 C 4.21875 -0.363281 3.921875 -0.226562 3.59375 -0.136719 C 3.261719 -0.046875 2.914062 0 2.550781 0 L 0.222656 0 L 0.222656 -0.253906 C 0.292969 -0.257812 0.378906 -0.261719 0.484375 -0.273438 C 0.589844 -0.285156 0.660156 -0.296875 0.691406 -0.3125 C 0.769531 -0.34375 0.824219 -0.390625 0.855469 -0.445312 C 0.886719 -0.5 0.902344 -0.566406 0.902344 -0.644531 L 0.902344 -3.917969 C 0.902344 -3.992188 0.886719 -4.058594 0.859375 -4.121094 C 0.832031 -4.179688 0.777344 -4.226562 0.691406 -4.265625 C 0.609375 -4.300781 0.523438 -4.328125 0.429688 -4.339844 C 0.339844 -4.351562 0.269531 -4.359375 0.21875 -4.367188 L 0.21875 -4.617188 L 2.675781 -4.617188 C 2.9375 -4.617188 3.21875 -4.585938 3.519531 -4.519531 C 3.816406 -4.449219 4.105469 -4.328125 4.382812 -4.144531 M 3.71875 -0.832031 C 3.828125 -1.007812 3.90625 -1.214844 3.953125 -1.453125 C 4.003906 -1.691406 4.027344 -1.96875 4.027344 -2.28125 C 4.027344 -2.585938 3.992188 -2.867188 3.929688 -3.117188 C 3.863281 -3.371094 3.769531 -3.585938 3.640625 -3.761719 C 3.515625 -3.941406 3.359375 -4.078125 3.171875 -4.175781 C 2.984375 -4.273438 2.769531 -4.324219 2.53125 -4.324219 C 2.457031 -4.324219 2.371094 -4.320312 2.273438 -4.316406 C 2.175781 -4.316406 2.105469 -4.3125 2.058594 -4.308594 L 2.058594 -0.804688 C 2.058594 -0.726562 2.066406 -0.65625 2.089844 -0.597656 C 2.109375 -0.539062 2.144531 -0.484375 2.195312 -0.4375 C 2.242188 -0.394531 2.304688 -0.359375 2.378906 -0.332031 C 2.449219 -0.308594 2.546875 -0.296875 2.664062 -0.296875 C 2.90625 -0.296875 3.117188 -0.339844 3.292969 -0.433594 C 3.46875 -0.523438 3.613281 -0.65625 3.71875 -0.832031 Z "/>
</g>
<g id="glyph-0-2">
<path d="M 4.320312 -3.441406 L 4.070312 -3.441406 C 4.007812 -3.617188 3.902344 -3.792969 3.746094 -3.972656 C 3.59375 -4.152344 3.441406 -4.257812 3.289062 -4.289062 C 3.222656 -4.304688 3.132812 -4.316406 3.015625 -4.316406 C 2.898438 -4.320312 2.804688 -4.324219 2.726562 -4.324219 L 2.058594 -4.324219 L 2.058594 -2.542969 L 2.53125 -2.542969 C 2.652344 -2.542969 2.761719 -2.554688 2.859375 -2.585938 C 2.957031 -2.613281 3.042969 -2.667969 3.125 -2.746094 C 3.175781 -2.796875 3.226562 -2.886719 3.277344 -3.011719 C 3.328125 -3.136719 3.359375 -3.246094 3.375 -3.339844 L 3.621094 -3.339844 L 3.621094 -1.414062 L 3.375 -1.414062 C 3.363281 -1.503906 3.328125 -1.617188 3.277344 -1.757812 C 3.222656 -1.894531 3.171875 -1.988281 3.125 -2.039062 C 3.054688 -2.117188 2.96875 -2.171875 2.871094 -2.203125 C 2.773438 -2.230469 2.660156 -2.246094 2.53125 -2.246094 L 2.058594 -2.246094 L 2.058594 -0.914062 C 2.058594 -0.777344 2.066406 -0.664062 2.089844 -0.585938 C 2.109375 -0.503906 2.148438 -0.441406 2.203125 -0.398438 C 2.257812 -0.355469 2.332031 -0.328125 2.425781 -0.316406 C 2.519531 -0.304688 2.648438 -0.296875 2.8125 -0.296875 C 2.886719 -0.296875 2.980469 -0.296875 3.085938 -0.300781 C 3.191406 -0.300781 3.285156 -0.308594 3.367188 -0.320312 C 3.457031 -0.328125 3.542969 -0.347656 3.621094 -0.367188 C 3.699219 -0.390625 3.757812 -0.421875 3.796875 -0.460938 C 3.902344 -0.570312 4.019531 -0.730469 4.148438 -0.949219 C 4.28125 -1.167969 4.367188 -1.332031 4.40625 -1.4375 L 4.644531 -1.4375 L 4.558594 0 L 0.222656 0 L 0.222656 -0.253906 C 0.285156 -0.257812 0.367188 -0.265625 0.472656 -0.28125 C 0.578125 -0.292969 0.648438 -0.308594 0.691406 -0.324219 C 0.777344 -0.359375 0.832031 -0.402344 0.859375 -0.457031 C 0.886719 -0.511719 0.902344 -0.578125 0.902344 -0.660156 L 0.902344 -3.917969 C 0.902344 -3.996094 0.890625 -4.0625 0.867188 -4.113281 C 0.84375 -4.164062 0.785156 -4.210938 0.691406 -4.25 C 0.636719 -4.277344 0.558594 -4.300781 0.457031 -4.324219 C 0.355469 -4.34375 0.277344 -4.359375 0.222656 -4.367188 L 0.222656 -4.617188 L 4.320312 -4.617188 Z "/>
</g>
</g>
</defs>
<g fill="rgb(37.647059%, 64.705882%, 98.039216%)" fill-opacity="1">
<use xlink:href="#glyph-0-0" x="30" y="26.112305"/>
<use xlink:href="#glyph-0-1" x="35" y="26.112305"/>
<use xlink:href="#glyph-0-2" x="41" y="26.112305"/>
</g>
</svg>
