<?xml version="1.0" encoding="UTF-8"?>
<svg xmlns="http://www.w3.org/2000/svg" xmlns:xlink="http://www.w3.org/1999/xlink" width="854" height="480" viewBox="0 0 854 480">
<defs>
<g>
<g id="glyph-0-0">
<path d="M 3.597656 -1.304688 L -0.0546875 -1.304688 L -0.0546875 -1.730469 L 3.597656 -1.730469 Z "/>
</g>
</g>
</defs>
<g fill="rgb(58.039216%, 63.921569%, 72.156863%)" fill-opacity="1">
<use xlink:href="#glyph-0-0" x="30" y="24.584961"/>
<use xlink:href="#glyph-0-0" x="34" y="24.584961"/>
<use xlink:href="#glyph-0-0" x="38" y="24.584961"/>
<use xlink:href="#glyph-0-0" x="42" y="24.584961"/>
<use xlink:href="#glyph-0-0" x="46" y="24.584961"/>
<use xlink:href="#glyph-0-0" x="50" y="24.584961"/>
<use xlink:href="#glyph-0-0" x="54" y="24.584961"/>
<use xlink:href="#glyph-0-0" x="58" y="24.584961"/>
<use xlink:href="#glyph-0-0" x="62" y="24.584961"/>
<use xlink:href="#glyph-0-0" x="66" y="24.584961"/>
<use xlink:href="#glyph-0-0" x="70" y="24.584961"/>
<use xlink:href="#glyph-0-0" x="74" y="24.584961"/>
<use xlink:href="#glyph-0-0" x="78" y="24.584961"/>
<use xlink:href="#glyph-0-0" x="82" y="24.584961"/>
<use xlink:href="#glyph-0-0" x="86" y="24.584961"/>
<use xlink:href="#glyph-0-0" x="90" y="24.584961"/>
<use xlink:href="#glyph-0-0" x="94" y="24.584961"/>
<use xlink:href="#glyph-0-0" x="98" y="24.584961"/>
<use xlink:href="#glyph-0-0" x="102" y="24.584961"/>
<use xlink:href="#glyph-0-0" x="106" y="24.584961"/>
<use xlink:href="#glyph-0-0" x="110" y="24.584961"/>
<use xlink:href="#glyph-0-0" x="114" y="24.584961"/>
<use xlink:href="#glyph-0-0" x="118" y="24.584961"/>
<use xlink:href="#glyph-0-0" x="122" y="24.584961"/>
<use xlink:href="#glyph-0-0" x="126" y="24.584961"/>
<use xlink:href="#glyph-0-0" x="130" y="24.584961"/>
<use xlink:href="#glyph-0-0" x="134" y="24.584961"/>
<use xlink:href="#glyph-0-0" x="138" y="24.584961"/>
<use xlink:href="#glyph-0-0" x="142" y="24.584961"/>
<use xlink:href="#glyph-0-0" x="146" y="24.584961"/>
<use xlink:href="#glyph-0-0" x="150" y="24.584961"/>
<use xlink:href="#glyph-0-0" x="154" y="24.584961"/>
<use xlink:href="#glyph-0-0" x="158" y="24.584961"/>
<use xlink:href="#glyph-0-0" x="162" y="24.584961"/>
<use xlink:href="#glyph-0-0" x="166" y="24.584961"/>
<use xlink:href="#glyph-0-0" x="170" y="24.584961"/>
<use xlink:href="#glyph-0-0" x="174" y="24.584961"/>
<use xlink:href="#glyph-0-0" x="178" y="24.584961"/>
<use xlink:href="#glyph-0-0" x="182" y="24.584961"/>
<use xlink:href="#glyph-0-0" x="186" y="24.584961"/>
<use xlink:href="#glyph-0-0" x="190" y="24.584961"/>
<use xlink:href="#glyph-0-0" x="194" y="24.584961"/>
</g>
</svg>
